<svg width="30" height="30" viewBox="0 0 30 30" fill="none" xmlns="http://www.w3.org/2000/svg">
<path d="M3.39846 21.2162L3.01701 20.3613C2.12249 18.3625 1.74232 16.1716 1.91113 13.9882C2.07993 11.8049 2.79236 9.69848 3.9835 7.8609C5.17463 6.02332 6.80662 4.51297 8.73079 3.46746C10.655 2.42195 12.8101 1.87451 15 1.875H15.9375V15.6076L3.39846 21.2162Z" fill="black"/>
<path d="M17.8125 3.89413V16.8228L5.54414 22.3113C6.63587 24.0873 8.16429 25.554 9.98368 26.5717C11.8031 27.5894 13.8528 28.1242 15.9375 28.125C22.6576 28.125 28.125 22.6576 28.125 15.9375C28.125 9.85488 23.6455 4.79882 17.8125 3.89413Z" fill="black"/>
</svg>
