<svg width="30" height="30" viewBox="0 0 30 30" fill="none" xmlns="http://www.w3.org/2000/svg">
<path d="M19.6875 15C18.4828 15 17.318 14.4621 16.4063 13.4859C15.5197 12.5338 14.9783 11.2641 14.8828 9.91172C14.7809 8.46914 15.2209 7.14258 16.1215 6.17578C17.0221 5.20898 18.2813 4.6875 19.6875 4.6875C21.0838 4.6875 22.3465 5.21836 23.2441 6.18281C24.1506 7.15664 24.5918 8.48086 24.4898 9.91113C24.392 11.2652 23.8512 12.5344 22.9664 13.4854C22.057 14.4621 20.8928 15 19.6875 15Z" fill="black"/>
<path d="M27.4119 25.3125H11.9637C11.7153 25.3138 11.4699 25.2582 11.2465 25.1498C11.023 25.0414 10.8273 24.8832 10.6746 24.6873C10.5126 24.475 10.4007 24.2288 10.3473 23.9671C10.294 23.7054 10.3005 23.435 10.3664 23.1762C10.8598 21.1951 12.082 19.5521 13.9008 18.4254C15.515 17.4258 17.5699 16.875 19.6875 16.875C21.8467 16.875 23.8477 17.4023 25.4713 18.4014C27.2941 19.5223 28.5182 21.1746 29.0092 23.1797C29.0743 23.4387 29.0801 23.7091 29.0261 23.9706C28.9721 24.2322 28.8598 24.4782 28.6975 24.6902C28.5449 24.8852 28.3497 25.0426 28.1269 25.1505C27.904 25.2584 27.6595 25.3138 27.4119 25.3125V25.3125Z" fill="black"/>
<path d="M8.61329 15.2344C6.55137 15.2344 4.73848 13.3172 4.57032 10.9611C4.48711 9.7541 4.86329 8.63789 5.62501 7.81934C6.37852 7.00898 7.44141 6.5625 8.61329 6.5625C9.78516 6.5625 10.8398 7.01133 11.5975 7.82637C12.365 8.65137 12.74 9.76523 12.6522 10.9623C12.484 13.3178 10.6717 15.2344 8.61329 15.2344Z" fill="black"/>
<path d="M12.4605 17.0772C11.4299 16.5732 10.0922 16.3213 8.61386 16.3213C6.88769 16.3213 5.21132 16.7713 3.89296 17.5881C2.39824 18.5156 1.39277 19.8662 0.986713 21.4969C0.92729 21.7314 0.92167 21.9764 0.970273 22.2134C1.01888 22.4504 1.12044 22.6734 1.26738 22.8656C1.4068 23.0446 1.58541 23.1892 1.78949 23.2884C1.99356 23.3875 2.21765 23.4385 2.44453 23.4375H8.94843C9.05821 23.4375 9.1645 23.3989 9.24877 23.3286C9.33304 23.2582 9.38994 23.1605 9.40957 23.0525C9.41601 23.0156 9.42421 22.9787 9.43359 22.9424C9.93046 20.9467 11.0947 19.2604 12.815 18.0311C12.8783 17.9854 12.9292 17.9248 12.9631 17.8545C12.997 17.7843 13.0128 17.7067 13.0092 17.6288C13.0055 17.5509 12.9825 17.4751 12.9421 17.4083C12.9018 17.3416 12.8454 17.286 12.7781 17.2465C12.6861 17.1926 12.5807 17.1357 12.4605 17.0772Z" fill="black"/>
</svg>
